<?xml version="1.0" standalone="no"?>
<!DOCTYPE svg PUBLIC "-//W3C//DTD SVG 20010904//EN"
 "http://www.w3.org/TR/2001/REC-SVG-20010904/DTD/svg10.dtd">
<svg version="1.0" xmlns="http://www.w3.org/2000/svg"
 width="512.000000pt" height="512.000000pt" viewBox="0 0 512.000000 512.000000"
 preserveAspectRatio="xMidYMid meet">
<metadata>
Created by potrace 1.14, written by Peter Selinger 2001-2017
</metadata>
<g transform="translate(0.000000,512.000000) scale(0.100000,-0.100000)"
fill="#000000" stroke="none">
<path d="M357 5110 c-176 -30 -320 -180 -348 -362 -6 -40 -9 -862 -7 -2238 l3
-2175 22 -55 c46 -111 142 -207 253 -253 l55 -22 2195 -3 c1543 -2 2210 1
2247 8 164 34 299 170 333 335 7 34 9 759 8 2245 l-3 2195 -22 55 c-46 111
-142 207 -253 253 l-55 22 -2190 1 c-1204 1 -2212 -2 -2238 -6z m2483 -995
c344 -49 647 -199 894 -443 540 -533 619 -1346 193 -1977 -80 -118 -284 -322
-402 -402 -89 -60 -272 -158 -308 -165 -14 -2 -41 48 -142 272 -69 151 -125
280 -125 286 0 7 19 19 43 29 74 29 189 107 265 179 183 174 278 385 289 641
11 253 -75 485 -246 667 -120 128 -241 204 -421 264 l-85 29 -522 3 -523 3 0
-930 0 -931 455 0 455 0 0 -315 0 -315 -770 0 -770 0 0 1560 0 1560 808 0
c661 0 826 -3 912 -15z"/>
</g>
</svg>
